<svg version="1.1" xmlns="http://www.w3.org/2000/svg" xmlns:xlink="http://www.w3.org/1999/xlink" role="img" width="241" height="90" viewbox="0 0 241 90"><title>cocodev</title><desc>Generated by logo.svg, https://github.com/bubkoo/logo.svg</desc><path fill="#2b68a7" d="M16.23 70.99Q12.78 70.99 9.96 69.52Q7.14 68.05 5.45 65.14Q3.75 62.22 3.75 57.74Q3.75 54.22 4.97 50.32Q6.18 46.42 8.62 43.02Q11.05 39.63 14.60 37.52Q18.15 35.41 22.82 35.41Q27.62 35.41 29.90 37.30Q32.17 39.18 32.17 41.55Q32.17 43.34 30.70 44.69Q29.22 46.03 26.47 46.03Q26.47 42.96 25.29 40.72Q24.10 38.48 21.54 38.48Q19.50 38.48 17.77 39.86Q16.04 41.23 14.66 43.44Q13.29 45.65 12.36 48.30Q11.43 50.96 10.92 53.58Q10.41 56.21 10.41 58.26Q10.41 62.42 12.20 64.69Q13.99 66.96 17.45 66.96Q20.84 66.96 23.08 65.49Q25.32 64.02 26.66 62.35Q27.30 62.80 27.30 63.95Q27.30 65.36 26.12 66.99Q24.94 68.62 22.50 69.81Q20.07 70.99 16.23 70.99ZM47.21 70.99Q41.77 70.99 38.34 67.70Q34.92 64.40 34.92 57.74Q34.92 54.22 36.07 50.32Q37.22 46.42 39.59 43.02Q41.96 39.63 45.54 37.52Q49.13 35.41 53.99 35.41Q57.38 35.41 60.14 36.75Q62.89 38.10 64.52 41.04Q66.15 43.98 66.15 48.66Q66.15 51.41 65.45 54.45Q64.74 57.49 63.27 60.43Q61.80 63.38 59.56 65.74Q57.32 68.11 54.22 69.55Q51.11 70.99 47.21 70.99M47.91 67.73Q51.05 67.73 53.26 65.71Q55.46 63.70 56.84 60.53Q58.22 57.36 58.86 53.90Q59.50 50.45 59.50 47.57Q59.50 42.77 57.83 40.72Q56.17 38.67 53.22 38.67Q50.73 38.67 48.81 40.02Q46.89 41.36 45.51 43.57Q44.14 45.78 43.27 48.46Q42.41 51.15 41.99 53.87Q41.58 56.59 41.58 58.90Q41.58 63.76 43.30 65.74Q45.03 67.73 47.91 67.73ZM84.14 70.99Q80.68 70.99 77.86 69.52Q75.05 68.05 73.35 65.14Q71.66 62.22 71.66 57.74Q71.66 54.22 72.87 50.32Q74.09 46.42 76.52 43.02Q78.95 39.63 82.50 37.52Q86.06 35.41 90.73 35.41Q95.53 35.41 97.80 37.30Q100.07 39.18 100.07 41.55Q100.07 43.34 98.60 44.69Q97.13 46.03 94.38 46.03Q94.38 42.96 93.19 40.72Q92.01 38.48 89.45 38.48Q87.40 38.48 85.67 39.86Q83.94 41.23 82.57 43.44Q81.19 45.65 80.26 48.30Q79.34 50.96 78.82 53.58Q78.31 56.21 78.31 58.26Q78.31 62.42 80.10 64.69Q81.90 66.96 85.35 66.96Q88.74 66.96 90.98 65.49Q93.22 64.02 94.57 62.35Q95.21 62.80 95.21 63.95Q95.21 65.36 94.02 66.99Q92.84 68.62 90.41 69.81Q87.98 70.99 84.14 70.99ZM115.11 70.99Q109.67 70.99 106.25 67.70Q102.82 64.40 102.82 57.74Q102.82 54.22 103.98 50.32Q105.13 46.42 107.50 43.02Q109.86 39.63 113.45 37.52Q117.03 35.41 121.90 35.41Q125.29 35.41 128.04 36.75Q130.79 38.10 132.42 41.04Q134.06 43.98 134.06 48.66Q134.06 51.41 133.35 54.45Q132.65 57.49 131.18 60.43Q129.70 63.38 127.46 65.74Q125.22 68.11 122.12 69.55Q119.02 70.99 115.11 70.99M115.82 67.73Q118.95 67.73 121.16 65.71Q123.37 63.70 124.74 60.53Q126.12 57.36 126.76 53.90Q127.40 50.45 127.40 47.57Q127.40 42.77 125.74 40.72Q124.07 38.67 121.13 38.67Q118.63 38.67 116.71 40.02Q114.79 41.36 113.42 43.57Q112.04 45.78 111.18 48.46Q110.31 51.15 109.90 53.87Q109.48 56.59 109.48 58.90Q109.48 63.76 111.21 65.74Q112.94 67.73 115.82 67.73ZM147.82 70.99Q145 70.99 143.14 69.46Q141.29 67.92 140.42 65.26Q139.56 62.61 139.56 59.28Q139.56 56.27 140.36 52.98Q141.16 49.68 142.76 46.58Q144.36 43.47 146.66 40.94Q148.97 38.42 151.98 36.91Q154.98 35.41 158.63 35.41Q160.49 35.41 162.09 35.86Q163.69 36.30 164.97 37.01Q165.10 36.18 165.29 35.06Q165.48 33.94 165.61 33.36L166.25 30.29Q166.44 29.39 166.57 28.59Q166.70 27.79 166.70 27.41Q166.70 25.49 165.38 24.94Q164.07 24.40 162.22 24.40L161.70 24.40L162.28 21.71L174.06 21.71L166.63 56.59Q166.50 57.30 166.25 58.64Q165.99 59.98 165.83 61.39Q165.67 62.80 165.67 63.70Q165.67 66.96 167.78 66.96Q168.81 66.96 169.99 66.48Q171.18 66 172.39 65.30L173.54 67.15Q172.65 67.98 171.11 68.88Q169.58 69.78 167.85 70.38Q166.12 70.99 164.52 70.99Q162.22 70.99 160.87 69.58Q159.53 68.18 159.53 65.68Q159.53 64.85 159.69 63.57Q159.85 62.29 160.17 60.69L159.78 60.69Q157.54 65.62 154.57 68.30Q151.59 70.99 147.82 70.99M150.12 66.96Q151.78 66.96 153.54 65.68Q155.30 64.40 156.87 62.22Q158.44 60.05 159.66 57.36Q160.87 54.67 161.45 51.92L163.82 40.59Q163.11 39.44 161.77 38.86Q160.42 38.29 158.95 38.29Q156.39 38.29 154.34 39.73Q152.30 41.17 150.76 43.54Q149.22 45.90 148.17 48.72Q147.11 51.54 146.60 54.38Q146.09 57.23 146.09 59.54Q146.09 63.50 147.24 65.23Q148.39 66.96 150.12 66.96ZM189.10 70.99Q185.64 70.99 182.82 69.52Q180.01 68.05 178.31 65.14Q176.62 62.22 176.62 57.74Q176.62 54.22 177.83 50.32Q179.05 46.42 181.48 43.02Q183.91 39.63 187.46 37.52Q191.02 35.41 195.69 35.41Q199.72 35.41 201.96 37.36Q204.20 39.31 204.20 42.77Q204.20 46.16 201.80 49.07Q199.40 51.98 195.21 53.78Q191.02 55.57 185.64 55.57L183.40 55.57Q183.34 56.27 183.30 56.94Q183.27 57.62 183.27 58.26Q183.27 62.42 185.06 64.69Q186.86 66.96 190.31 66.96Q193.38 66.96 195.78 65.49Q198.18 64.02 199.53 62.35Q200.17 62.80 200.17 63.95Q200.17 65.36 198.98 66.99Q197.80 68.62 195.37 69.81Q192.94 70.99 189.10 70.99M183.98 52.62L184.62 52.62Q188.33 52.62 191.27 51.38Q194.22 50.13 195.91 47.92Q197.61 45.71 197.61 42.77Q197.61 38.48 193.90 38.48Q192.04 38.48 190.47 39.73Q188.90 40.98 187.62 43.06Q186.34 45.14 185.42 47.63Q184.49 50.13 183.98 52.62ZM216.04 70.93L211.56 42.13Q211.24 40.14 210.12 39.44Q209.00 38.74 207.14 38.74L206.50 38.74L207.02 36.05L216.62 36.05L219.56 54.99Q219.88 57.17 220.17 59.38Q220.46 61.58 220.68 63.41Q220.90 65.23 221.03 66.32L221.22 66.32Q223.53 64.08 225.67 61.33Q227.82 58.58 229.45 55.73Q231.08 52.88 232.04 50.26Q233.00 47.63 233.00 45.71Q233.00 43.47 231.91 42.16Q230.82 40.85 229.03 40.85Q229.03 38.22 230.44 36.98Q231.85 35.73 233.38 35.73Q235.37 35.73 236.55 37.10Q237.74 38.48 237.74 41.68Q237.74 45.46 236.10 49.55Q234.47 53.65 231.94 57.58Q229.42 61.52 226.70 64.82Q223.98 68.11 221.80 70.29L216.04 70.93Z"></path></svg>